<?xml version="1.0" encoding="UTF-8"?>
<svg version="1.1" xmlns="http://www.w3.org/2000/svg" width="500" height="500">
<path d="M0 0 C1.08784286 0.00638992 1.08784286 0.00638992 2.19766235 0.01290894 C13.0894802 0.1019486 22.64113769 0.86629936 32.625 5.5625 C33.23279297 5.8301416 33.84058594 6.0977832 34.46679688 6.37353516 C42.28869467 9.81831832 49.14663145 13.97900337 55.625 19.5625 C56.28757813 20.08199219 56.95015625 20.60148437 57.6328125 21.13671875 C74.4481131 34.75381512 82.71501502 55.67587886 85.625 76.5625 C87.01386844 100.65402563 80.46513813 123.37409719 64.84765625 142.12109375 C51.20702482 157.10421264 34.51955956 166.58930492 14.625 170.5625 C13.25794922 170.83707031 13.25794922 170.83707031 11.86328125 171.1171875 C-13.65259988 174.62600589 -36.48864539 166.92163817 -56.9765625 151.859375 C-57.43804687 151.43140625 -57.89953125 151.0034375 -58.375 150.5625 C-58.375 149.9025 -58.375 149.2425 -58.375 148.5625 C-58.96539062 148.30597656 -59.55578125 148.04945313 -60.1640625 147.78515625 C-71.44914068 141.54446814 -78.34579011 125.2366695 -82.375 113.5625 C-83.74990275 108.62895775 -84.59754868 103.62191398 -85.375 98.5625 C-85.64957031 97.04269531 -85.64957031 97.04269531 -85.9296875 95.4921875 C-89.12553271 74.46689006 -82.73544499 51.75049817 -70.35546875 34.796875 C-66.65870919 30.07520122 -62.82472622 25.58844277 -58.375 21.5625 C-57.715 21.5625 -57.055 21.5625 -56.375 21.5625 C-56.375 20.9025 -56.375 20.2425 -56.375 19.5625 C-40.96829455 5.62920089 -20.36237804 -0.25661343 0 0 Z " fill="#013BA5" transform="translate(112.375,157.4375)"/>
<path d="M0 0 C7.33123028 2.66246057 7.33123028 2.66246057 9 6 C9.09766473 7.7999794 9.13077333 9.60362411 9.1328125 11.40625 C9.13474609 12.5312793 9.13667969 13.65630859 9.13867188 14.81542969 C9.13416016 16.03133789 9.12964844 17.24724609 9.125 18.5 C9.12306641 19.73911133 9.12113281 20.97822266 9.11914062 22.25488281 C9.06170547 34.84913574 8.5944846 47.42095881 8 60 C9.37285156 59.98259766 9.37285156 59.98259766 10.7734375 59.96484375 C12.55621094 59.95130859 12.55621094 59.95130859 14.375 59.9375 C15.55835938 59.92589844 16.74171875 59.91429687 17.9609375 59.90234375 C21 60 21 60 23 61 C23 62.65 23 64.3 23 66 C22.16855469 66.19335938 21.33710938 66.38671875 20.48046875 66.5859375 C19.39378906 66.84632813 18.30710937 67.10671875 17.1875 67.375 C16.10855469 67.63023437 15.02960938 67.88546875 13.91796875 68.1484375 C10.84466657 68.88732881 10.84466657 68.88732881 8 71 C7.5640186 74.23347664 7.5640186 74.23347664 7.671875 78.0703125 C7.67468475 79.14114578 7.67468475 79.14114578 7.67755127 80.23361206 C7.68428878 81.75523504 7.69823684 83.27684022 7.71875 84.79833984 C7.74922846 87.06755659 7.75965944 89.33606987 7.765625 91.60546875 C7.81878121 101.43211912 8.2835014 111.20063195 9 121 C1.01694936 121.76804567 1.01694936 121.76804567 -1.67578125 119.734375 C-10.64923743 108.82858164 -7.10560125 89.28788683 -7 76 C-13.93316652 77.60368698 -20.49538844 79.40334743 -27.0390625 82.23046875 C-29 83 -29 83 -31 83 C-31.391875 84.175625 -31.78375 85.35125 -32.1875 86.5625 C-32.59935547 87.79033203 -32.59935547 87.79033203 -33.01953125 89.04296875 C-33.73747093 91.20822906 -34.4412098 93.37821206 -35.13671875 95.55078125 C-42.52343746 118.48988967 -42.52343746 118.48988967 -48 123 C-51.89808775 123.06960871 -54.15593007 122.54107047 -57.4375 120.4375 C-59.69747553 116.91193818 -59.7784884 113.99310861 -59 110 C-57.96251523 107.23195661 -56.74783831 104.61827491 -55.4453125 101.96484375 C-53.89862694 98.79204824 -52.53265216 95.57545482 -51.1875 92.3125 C-50.55908203 90.79076172 -50.55908203 90.79076172 -49.91796875 89.23828125 C-49.46357422 88.13033203 -49.46357422 88.13033203 -49 87 C-49.93972656 86.92652344 -49.93972656 86.92652344 -50.8984375 86.8515625 C-51.71570313 86.77679688 -52.53296875 86.70203125 -53.375 86.625 C-54.18710938 86.55539062 -54.99921875 86.48578125 -55.8359375 86.4140625 C-58 86 -58 86 -60 84 C-60.05859375 82.078125 -60.05859375 82.078125 -59 80 C-56.66142667 78.71097601 -54.52952895 77.7084493 -52.0625 76.75 C-51.09280273 76.3478125 -51.09280273 76.3478125 -50.10351562 75.9375 C-45.34378986 74 -45.34378986 74 -43 74 C-42.88398437 73.4740625 -42.76796875 72.948125 -42.6484375 72.40625 C-40.95595566 66.12571499 -38.33141919 60.06881696 -36 54 C-35.5992627 52.95521484 -35.19852539 51.91042969 -34.78564453 50.83398438 C-30.10518212 38.67070012 -25.37722148 26.51922228 -20.1875 14.5625 C-19.85129639 13.7590918 -19.51509277 12.95568359 -19.16870117 12.12792969 C-15.40303612 3.66505911 -9.6873688 -1.26798021 0 0 Z " fill="#F7F8F9" transform="translate(126,177)"/>
<path d="M0 0 C1.4540625 0.0309375 1.4540625 0.0309375 2.9375 0.0625 C6.6814894 7.92359114 10.07408586 15.80202438 13.13916016 23.95507812 C14.87730553 28.54335669 16.65847523 33.11495618 18.4375 37.6875 C18.80528564 38.64124512 19.17307129 39.59499023 19.55200195 40.57763672 C24.28087552 55.3463376 24.28087552 55.3463376 33.625 66.625 C34.388125 67.099375 35.15125 67.57375 35.9375 68.0625 C35.9375 69.3825 35.9375 70.7025 35.9375 72.0625 C26.3675 72.0625 16.7975 72.0625 6.9375 72.0625 C6.9375 70.4125 6.9375 68.7625 6.9375 67.0625 C9.9075 66.5675 9.9075 66.5675 12.9375 66.0625 C12.36271361 59.73984974 11.0258233 55.32746991 8.9375 49.0625 C0.6875 49.0625 -7.5625 49.0625 -16.0625 49.0625 C-17.0525 52.0325 -18.0425 55.0025 -19.0625 58.0625 C-19.3925 58.7225 -19.7225 59.3825 -20.0625 60.0625 C-20.102492 62.06210012 -20.10596799 64.06297242 -20.0625 66.0625 C-17.7525 66.7225 -15.4425 67.3825 -13.0625 68.0625 C-13.0625 69.3825 -13.0625 70.7025 -13.0625 72.0625 C-20.9825 72.0625 -28.9025 72.0625 -37.0625 72.0625 C-37.3925 70.7425 -37.7225 69.4225 -38.0625 68.0625 C-37.175625 67.77375 -36.28875 67.485 -35.375 67.1875 C-28.17474568 62.56846893 -25.63897669 51.84113249 -22.5625 44.125 C-19.90450524 37.53424671 -17.18787949 31.00854311 -14.17578125 24.5703125 C-12.83299379 21.54550706 -11.66737996 18.47155471 -10.5 15.375 C-4.72730365 0.09647558 -4.72730365 0.09647558 0 0 Z M-4.0625 17.0625 C-5.38098524 20.62281336 -6.69122561 24.18610666 -8 27.75 C-8.55977539 29.26110352 -8.55977539 29.26110352 -9.13085938 30.80273438 C-9.48857422 31.77919922 -9.84628906 32.75566406 -10.21484375 33.76171875 C-10.7097229 35.10496216 -10.7097229 35.10496216 -11.21459961 36.4753418 C-12.23817942 39.42512402 -12.23817942 39.42512402 -13.0625 44.0625 C-6.4625 44.0625 0.1375 44.0625 6.9375 44.0625 C4.22082431 35.89464591 4.22082431 35.89464591 1.4375 27.75 C1.0353125 26.57824219 0.633125 25.40648437 0.21875 24.19921875 C-0.94565421 21.34855845 -2.18077162 19.45316214 -4.0625 17.0625 Z " fill="#E1E0DE" transform="translate(243.0625,204.9375)"/>
<path d="M0 0 C0 0.66 0 1.32 0 2 C0.66 2 1.32 2 2 2 C4.02149514 6.21144821 4.27670734 9.7366408 4.34375 14.3828125 C4.3583728 15.07889618 4.37299561 15.77497986 4.38806152 16.49215698 C4.45003037 19.45341231 4.48998944 22.41486641 4.53173828 25.37646484 C4.56547306 27.54546858 4.61056432 29.71403293 4.65625 31.8828125 C4.68428711 33.82244873 4.68428711 33.82244873 4.71289062 35.80126953 C4.75680988 39.15315174 4.75680988 39.15315174 7 42 C9.05003955 43.19232613 9.05003955 43.19232613 11 44 C11 45.32 11 46.64 11 48 C3.41 48 -4.18 48 -12 48 C-10.89070408 42.45352039 -10.92965752 42.94724314 -7 40 C-5.72046369 35.68358953 -5.84737333 31.27568758 -5.875 26.8125 C-5.87693359 26.06234619 -5.87886719 25.31219238 -5.88085938 24.53930664 C-5.92405005 18.97190883 -6.2981603 13.52698767 -7 8 C-7.66 8 -8.32 8 -9 8 C-9 7.34 -9 6.68 -9 6 C-10.7492214 5.91857073 -12.49954542 5.86061459 -14.25 5.8125 C-15.22453125 5.77769531 -16.1990625 5.74289063 -17.203125 5.70703125 C-20.44849161 6.04697887 -21.72949286 6.68262459 -24 9 C-25.14221117 12.31381101 -25.12906839 15.48983223 -25.1328125 18.97265625 C-25.13410156 20.11927734 -25.13539063 21.26589844 -25.13671875 22.44726562 C-25.13091797 24.23680664 -25.13091797 24.23680664 -25.125 26.0625 C-25.12886719 27.25939453 -25.13273437 28.45628906 -25.13671875 29.68945312 C-25.13478516 31.40745117 -25.13478516 31.40745117 -25.1328125 33.16015625 C-25.13168457 34.20824463 -25.13055664 35.25633301 -25.12939453 36.33618164 C-25.11499005 39.10474232 -25.11499005 39.10474232 -24 42 C-21.99983534 43.20882096 -21.99983534 43.20882096 -20 44 C-20 45.32 -20 46.64 -20 48 C-27.26 48 -34.52 48 -42 48 C-42 46.35 -42 44.7 -42 43 C-40.68 42.34 -39.36 41.68 -38 41 C-37.87641546 36.21290532 -37.78567229 31.42673819 -37.7253418 26.63842773 C-37.70019432 25.0096825 -37.66607122 23.38105015 -37.62280273 21.75268555 C-37.5621545 19.41166366 -37.53379524 17.07213269 -37.51171875 14.73046875 C-37.48591232 14.00224411 -37.4601059 13.27401947 -37.43351746 12.52372742 C-37.37643697 10.21616718 -37.37643697 10.21616718 -38 7 C-40.38537848 4.94630715 -40.38537848 4.94630715 -43 4 C-42.4375 2.125 -42.4375 2.125 -41 0 C-35.91866739 -2.03253305 -31.38543035 -2.4563924 -26 -2 C-25.34 -1.01 -24.68 -0.02 -24 1 C-23.4225 0.525625 -22.845 0.05125 -22.25 -0.4375 C-15.75075064 -4.95086761 -6.43667158 -4.06526626 0 0 Z " fill="#E0DFDE" transform="translate(445,229)"/>
<path d="M0 0 C5.28 0 10.56 0 16 0 C16.04898437 2.38476562 16.09796875 4.76953125 16.1484375 7.2265625 C16.20253123 9.55002829 16.25980561 11.87339557 16.31738281 14.19677734 C16.35553759 15.80477482 16.39041348 17.41285373 16.421875 19.02099609 C16.4678206 21.33981316 16.52576381 23.6580762 16.5859375 25.9765625 C16.59748871 26.68930328 16.60903992 27.40204407 16.62094116 28.13638306 C16.77470501 33.40059314 17.1582373 38.1582373 21 42 C23.03016664 42.47022751 23.03016664 42.47022751 25.3125 42.5 C26.07175781 42.5515625 26.83101563 42.603125 27.61328125 42.65625 C30.52602904 41.85536354 32.19205732 40.57774455 34.02075195 38.17529297 C36.24051847 33.24432323 35.57969682 27.60724039 35.4375 22.3125 C35.43169922 21.07693359 35.42589844 19.84136719 35.41992188 18.56835938 C35.56982262 11.90600139 35.56982262 11.90600139 33 6 C30.94996045 4.80767387 30.94996045 4.80767387 29 4 C29 2.68 29 1.36 29 0 C34.61 0 40.22 0 46 0 C46.02505615 1.23153809 46.0501123 2.46307617 46.07592773 3.73193359 C46.16992612 8.29047493 46.27016515 12.84886118 46.37231445 17.40722656 C46.41569203 19.38212462 46.457365 21.35706087 46.49731445 23.33203125 C46.55494873 26.1667839 46.6186627 29.00134378 46.68359375 31.8359375 C46.70030624 32.72243988 46.71701874 33.60894226 46.73423767 34.52230835 C46.71085211 38.89925155 46.71085211 38.89925155 48 43 C49.64363134 43.72159424 51.31050386 44.39351421 53 45 C53 46.32 53 47.64 53 49 C50.75152519 49.36372387 48.50113812 49.71564096 46.25 50.0625 C44.37054688 50.35833984 44.37054688 50.35833984 42.453125 50.66015625 C37.47979364 51.14961307 37.47979364 51.14961307 35 50 C34.67 49.01 34.34 48.02 34 47 C32.906875 47.66 31.81375 48.32 30.6875 49 C25.53034297 51.56483831 20.65964039 51.87270791 15 51 C11.08924075 49.01031547 9.42310902 47.63466354 7 44 C6.02019083 39.63161943 5.87727172 35.42315745 5.859375 30.95703125 C5.84107058 29.62302948 5.82150251 28.28904455 5.80078125 26.95507812 C5.77168858 24.87445877 5.74999592 22.79494834 5.74951172 20.71411133 C5.74618578 18.6907552 5.70950316 16.6675402 5.671875 14.64453125 C5.6625293 13.44159424 5.65318359 12.23865723 5.64355469 10.99926758 C5.43118164 10.00950928 5.21880859 9.01975098 5 8 C3.35588121 6.96334616 1.68973626 5.96050463 0 5 C0 3.35 0 1.7 0 0 Z " fill="#E6E5E4" transform="translate(345,227)"/>
<path d="M0 0 C0.07636215 7.52556829 0.12873076 15.05103582 0.16479492 22.5769043 C0.1798371 25.13455947 0.20027589 27.69218904 0.22631836 30.24975586 C0.26290204 33.93609963 0.27977268 37.62210091 0.29296875 41.30859375 C0.30845261 42.44332626 0.32393646 43.57805878 0.33988953 44.74717712 C0.34166868 53.23052115 -0.81652129 61.01357218 -6 68 C-6.66 68 -7.32 68 -8 68 C-8 68.66 -8 69.32 -8 70 C-13.65406987 73.21449658 -17.73844636 75.03659413 -24.3125 73.4375 C-26 72 -26 72 -26.9375 68.5625 C-27 65 -27 65 -25.9375 63.0625 C-23.10718985 61.51039444 -21.18597524 61.61768297 -18 62 C-15.125 63.5 -15.125 63.5 -13 65 C-10.83936002 61.75904003 -10.75093321 60.88661493 -10.75708008 57.14892578 C-10.75400345 56.16425323 -10.75092682 55.17958069 -10.74775696 54.16506958 C-10.75494247 53.10254974 -10.76212799 52.04002991 -10.76953125 50.9453125 C-10.76998947 49.85161346 -10.77044769 48.75791443 -10.7709198 47.631073 C-10.77394256 45.31604936 -10.78182956 43.00102777 -10.79418945 40.68603516 C-10.81239158 37.14608531 -10.81469947 33.60639791 -10.81445312 30.06640625 C-10.81937056 27.81770608 -10.82519986 25.56900767 -10.83203125 23.3203125 C-10.83314407 22.26184113 -10.8342569 21.20336975 -10.83540344 20.11282349 C-10.84178329 19.12184662 -10.84816315 18.13086975 -10.85473633 17.10986328 C-10.85854813 16.24177032 -10.86235992 15.37367737 -10.86628723 14.47927856 C-11.00517013 11.90413637 -11.43423556 9.51308226 -12 7 C-13.98 7 -15.96 7 -18 7 C-18 5.35 -18 3.7 -18 2 C-15.75256955 1.46818825 -13.50192898 0.94992874 -11.25 0.4375 C-9.37054688 0.00244141 -9.37054688 0.00244141 -7.453125 -0.44140625 C-4.2695502 -0.95639629 -2.95491854 -0.88590949 0 0 Z " fill="#E3E1E0" transform="translate(336,227)"/>
<path d="M0 0 C2.5 1.5625 2.5 1.5625 4 4 C3.75 7.75 3.75 7.75 3 11 C-1.97063121 11.91297308 -6.02936879 11.91297308 -11 11 C-14.15997078 14.41600142 -14.36592276 16.82782969 -14.328125 21.41015625 C-14.32296875 22.64701172 -14.3178125 23.88386719 -14.3125 25.15820312 C-14.291875 26.44662109 -14.27125 27.73503906 -14.25 29.0625 C-14.24484375 30.35478516 -14.2396875 31.64707031 -14.234375 32.97851562 C-14.31876656 39.59461986 -14.31876656 39.59461986 -13 46 C-11.35 46.33 -9.7 46.66 -8 47 C-8.33 48.32 -8.66 49.64 -9 51 C-16.26 51 -23.52 51 -31 51 C-30.67 49.35 -30.34 47.7 -30 46 C-29.01 46 -28.02 46 -27 46 C-25.21381934 40.64145801 -25.81408749 34.82468617 -25.81469727 29.21166992 C-25.81250469 26.94235653 -25.79431929 24.67352467 -25.77539062 22.40429688 C-25.77245769 20.9661475 -25.77047223 19.52799581 -25.76953125 18.08984375 C-25.76542236 16.77878662 -25.76131348 15.46772949 -25.75708008 14.11694336 C-25.66817879 10.89846981 -25.66817879 10.89846981 -28 9 C-30.06874034 8.3574765 -30.06874034 8.3574765 -32 8 C-32 6.68 -32 5.36 -32 4 C-26.47239641 1.89424625 -21.93002267 0.62148791 -16 1 C-15.34 2.65 -14.68 4.3 -14 6 C-13.21625 5.195625 -12.4325 4.39125 -11.625 3.5625 C-7.70499645 -0.26417013 -5.4599092 -0.47068183 0 0 Z " fill="#E4E3E1" transform="translate(312,226)"/>
<path d="M0 0 C0.66 0.66 1.32 1.32 2 2 C2.61875 1.649375 3.2375 1.29875 3.875 0.9375 C4.926875 0.4734375 4.926875 0.4734375 6 0 C8.52845528 1.26422764 8.76422764 2.52845528 10 5 C10.66 5.33 11.32 5.66 12 6 C11.67 7.32 11.34 8.64 11 10 C11.99 10.33 12.98 10.66 14 11 C14 14 14 14 12 18 C9.525 12.06 9.525 12.06 7 6 C4.95027629 8.04972371 4.47154681 9.0692402 3.5625 11.73828125 C3.17964844 12.84526367 3.17964844 12.84526367 2.7890625 13.97460938 C2.52867187 14.74611328 2.26828125 15.51761719 2 16.3125 C1.48009561 17.82974572 0.95928427 19.346681 0.4375 20.86328125 C0.20933594 21.53657471 -0.01882812 22.20986816 -0.25390625 22.90356445 C-1.10433115 25.29315823 -2.05800059 27.64500148 -3 30 C4.26 30 11.52 30 19 30 C19.495 31.485 19.495 31.485 20 33 C18 35 18 35 15.56982422 35.22705078 C14.5748291 35.21657715 13.57983398 35.20610352 12.5546875 35.1953125 C11.47832031 35.18886719 10.40195313 35.18242187 9.29296875 35.17578125 C7.60107422 35.15064453 7.60107422 35.15064453 5.875 35.125 C4.73933594 35.11597656 3.60367188 35.10695312 2.43359375 35.09765625 C-0.37781299 35.07403098 -3.18880298 35.04109013 -6 35 C-6.20496094 35.62648437 -6.40992188 36.25296875 -6.62109375 36.8984375 C-6.89050781 37.71570313 -7.15992188 38.53296875 -7.4375 39.375 C-7.70433594 40.18710937 -7.97117188 40.99921875 -8.24609375 41.8359375 C-9 44 -9 44 -10 46 C-10.039992 47.99960012 -10.04346799 50.00047242 -10 52 C-7.69 52.66 -5.38 53.32 -3 54 C-3 55.32 -3 56.64 -3 58 C-10.92 58 -18.84 58 -27 58 C-27.33 56.68 -27.66 55.36 -28 54 C-27.113125 53.71125 -26.22625 53.4225 -25.3125 53.125 C-18.11225883 48.50597736 -15.5764602 37.77860206 -12.5 30.0625 C-9.8022321 23.37333037 -7.04812928 16.74409004 -3.99609375 10.20703125 C-2.48738951 6.86421598 -1.23729891 3.45141276 0 0 Z " fill="#DEDDDB" transform="translate(233,219)"/>
<path d="M0 0 C5.28 0 10.56 0 16 0 C16.33 13.86 16.66 27.72 17 42 C20.61136212 43.80568106 21.544531 44.24851563 25.25 44.125 C26.4875 44.08375 27.725 44.0425 29 44 C29.33 45.65 29.66 47.3 30 49 C25.21725388 51.80677589 20.39943802 51.64855768 15 51 C11.08924075 49.01031547 9.42310902 47.63466354 7 44 C6.02019083 39.63161943 5.87727172 35.42315745 5.859375 30.95703125 C5.84107058 29.62302948 5.82150251 28.28904455 5.80078125 26.95507812 C5.77168858 24.87445877 5.74999592 22.79494834 5.74951172 20.71411133 C5.74618578 18.6907552 5.70950316 16.6675402 5.671875 14.64453125 C5.6625293 13.44159424 5.65318359 12.23865723 5.64355469 10.99926758 C5.43118164 10.00950928 5.21880859 9.01975098 5 8 C3.35588121 6.96334616 1.68973626 5.96050463 0 5 C0 3.35 0 1.7 0 0 Z " fill="#F7F6F4" transform="translate(345,227)"/>
<path d="M0 0 C1.59134766 -0.02126953 1.59134766 -0.02126953 3.21484375 -0.04296875 C6.0625 0.1875 6.0625 0.1875 9.0625 2.1875 C9.0625 2.8475 9.0625 3.5075 9.0625 4.1875 C9.7225 4.1875 10.3825 4.1875 11.0625 4.1875 C13.08399514 8.39894821 13.33920734 11.9241408 13.40625 16.5703125 C13.4208728 17.26639618 13.43549561 17.96247986 13.45056152 18.67965698 C13.51253037 21.64091231 13.55248944 24.60236641 13.59423828 27.56396484 C13.62797306 29.73296858 13.67306432 31.90153293 13.71875 34.0703125 C13.74678711 36.00994873 13.74678711 36.00994873 13.77539062 37.98876953 C13.81930988 41.34065174 13.81930988 41.34065174 16.0625 44.1875 C18.11253955 45.37982613 18.11253955 45.37982613 20.0625 46.1875 C20.0625 47.5075 20.0625 48.8275 20.0625 50.1875 C12.4725 50.1875 4.8825 50.1875 -2.9375 50.1875 C-1.82820408 44.64102039 -1.86715752 45.13474314 2.0625 42.1875 C3.34203631 37.87108953 3.21512667 33.46318758 3.1875 29 C3.18459961 27.87476929 3.18459961 27.87476929 3.18164062 26.72680664 C3.13844995 21.15940883 2.7643397 15.71448767 2.0625 10.1875 C1.4025 10.1875 0.7425 10.1875 0.0625 10.1875 C-0.2675 8.8675 -0.5975 7.5475 -0.9375 6.1875 C-1.2675 6.1875 -1.5975 6.1875 -1.9375 6.1875 C-3.60571323 5.86199498 -5.27249557 5.52903937 -6.9375 5.1875 C-7.2675 3.8675 -7.5975 2.5475 -7.9375 1.1875 C-5.2264923 -0.16800385 -3.02410831 0.01832793 0 0 Z " fill="#E0DFDE" transform="translate(435.9375,226.8125)"/>
<path d="M0 0 C0.33 0 0.66 0 1 0 C1.96465491 7.22351829 2.11956114 14.28062068 2.0625 21.5625 C2.05798828 22.66658203 2.05347656 23.77066406 2.04882812 24.90820312 C2.0371514 27.605527 2.02077525 30.30273347 2 33 C-9.46575342 38 -9.46575342 38 -16 38 C-15.57688293 34.72084271 -14.61276932 31.99934167 -13.2421875 29.0234375 C-11.65267277 25.50374677 -10.15211059 21.96195861 -8.7109375 18.37890625 C-8.32679687 17.42435547 -7.94265625 16.46980469 -7.546875 15.48632812 C-6.75510039 13.51085048 -5.96610763 11.53425594 -5.1796875 9.55664062 C-4.798125 8.61111328 -4.4165625 7.66558594 -4.0234375 6.69140625 C-3.68231934 5.83748291 -3.34120117 4.98355957 -2.98974609 4.10375977 C-2 2 -2 2 0 0 Z " fill="#0239A1" transform="translate(116,207)"/>
<path d="M0 0 C1.4540625 0.0309375 1.4540625 0.0309375 2.9375 0.0625 C6.22624656 6.3952492 7.63995971 11.93641001 7.9375 19.0625 C7.2775 19.0625 6.6175 19.0625 5.9375 19.0625 C5.9375 19.7225 5.9375 20.3825 5.9375 21.0625 C5.2775 21.0625 4.6175 21.0625 3.9375 21.0625 C4.2675 22.3825 4.5975 23.7025 4.9375 25.0625 C3.6175 24.7325 2.2975 24.4025 0.9375 24.0625 C0.751875 23.134375 0.751875 23.134375 0.5625 22.1875 C0.06552644 19.87129168 0.06552644 19.87129168 -2.0625 18.0625 C-2.0625 17.0725 -2.0625 16.0825 -2.0625 15.0625 C-5.67242379 15.71835189 -5.67242379 15.71835189 -9.0625 17.0625 C-8.6327503 11.04600415 -7.48295587 0.15271339 0 0 Z " fill="#EEEDEB" transform="translate(243.0625,204.9375)"/>
<path d="M0 0 C0.33 0 0.66 0 1 0 C1.96465491 7.22351829 2.11956114 14.28062068 2.0625 21.5625 C2.05798828 22.66658203 2.05347656 23.77066406 2.04882812 24.90820312 C2.0371514 27.605527 2.02077525 30.30273347 2 33 C-9.46575342 38 -9.46575342 38 -16 38 C-15.57688293 34.72084271 -14.61276932 31.99934167 -13.2421875 29.0234375 C-11.65267277 25.50374677 -10.15211059 21.96195861 -8.7109375 18.37890625 C-8.32679687 17.42435547 -7.94265625 16.46980469 -7.546875 15.48632812 C-6.75510039 13.51085048 -5.96610763 11.53425594 -5.1796875 9.55664062 C-4.798125 8.61111328 -4.4165625 7.66558594 -4.0234375 6.69140625 C-3.68231934 5.83748291 -3.34120117 4.98355957 -2.98974609 4.10375977 C-2 2 -2 2 0 0 Z M-2 8 C-5.16176217 13.23308244 -5.16176217 13.23308244 -7 19 C-7.350625 19.66 -7.70125 20.32 -8.0625 21 C-9.28295592 23.23550185 -9.28295592 23.23550185 -9 27 C-9.66 27 -10.32 27 -11 27 C-11.67801034 29.90073181 -11.67801034 29.90073181 -12 33 C-11.34 33.66 -10.68 34.32 -10 35 C-7.80103789 34.83858346 -7.80103789 34.83858346 -5.4375 34.1875 C-4.63183594 33.99542969 -3.82617188 33.80335938 -2.99609375 33.60546875 C-1.02027154 33.17740913 -1.02027154 33.17740913 0 32 C0.08726223 30.21928754 0.10699041 28.4351686 0.09765625 26.65234375 C0.09443359 25.57275391 0.09121094 24.49316406 0.08789062 23.38085938 C0.07951172 22.24455078 0.07113281 21.10824219 0.0625 19.9375 C0.05798828 18.79732422 0.05347656 17.65714844 0.04882812 16.48242188 C0.03699747 13.65489649 0.0205141 10.8274736 0 8 C-0.66 8 -1.32 8 -2 8 Z " fill="#163689" transform="translate(116,207)"/>
<path d="M0 0 C0.92941406 -0.00515625 1.85882813 -0.0103125 2.81640625 -0.015625 C5.4929462 0.25561899 7.14188282 0.88883405 9.4375 2.25 C8.49648437 2.20359375 7.55546875 2.1571875 6.5859375 2.109375 C5.34070313 2.07328125 4.09546875 2.0371875 2.8125 2 C0.96785156 1.93039063 0.96785156 1.93039063 -0.9140625 1.859375 C-5.27745126 2.32654724 -7.23796572 3.41869192 -10.5625 6.25 C-12.39583144 8.76044656 -12.39583144 8.76044656 -13.75 11.8125 C-14.0269873 12.39257812 -14.30397461 12.97265625 -14.58935547 13.5703125 C-21.78644484 29.03271913 -28.15070593 45.07441661 -33.5625 61.25 C-34.2225 60.59 -34.8825 59.93 -35.5625 59.25 C-35.5625 58.26 -35.5625 57.27 -35.5625 56.25 C-34.9025 56.25 -34.2425 56.25 -33.5625 56.25 C-33.39234375 55.41597656 -33.2221875 54.58195312 -33.046875 53.72265625 C-31.73039142 47.6094107 -30.26476657 42.02892955 -27.546875 36.39453125 C-25.89423011 32.79412631 -24.7411887 29.02716152 -23.5625 25.25 C-22.9025 25.25 -22.2425 25.25 -21.5625 25.25 C-21.48128906 24.42242187 -21.40007812 23.59484375 -21.31640625 22.7421875 C-20.39177461 18.45917874 -18.62893331 15.16957543 -16.5 11.375 C-16.12294922 10.68664062 -15.74589844 9.99828125 -15.35742188 9.2890625 C-14.43356965 7.6050787 -13.49910333 5.92692533 -12.5625 4.25 C-11.9025 4.25 -11.2425 4.25 -10.5625 4.25 C-10.5625 3.59 -10.5625 2.93 -10.5625 2.25 C-6.90115386 0.57548235 -4.0201529 -0.02236525 0 0 Z " fill="#1A3C8E" transform="translate(122.5625,175.75)"/>
<path d="M0 0 C1.47906892 -0.02689216 2.95827483 -0.04634621 4.4375 -0.0625 C5.26121094 -0.07410156 6.08492188 -0.08570313 6.93359375 -0.09765625 C9 0 9 0 10 1 C10.203125 2.9609375 10.203125 2.9609375 10.25 5.375 C10.28867187 6.56222656 10.28867187 6.56222656 10.328125 7.7734375 C10 10 10 10 8.671875 11.765625 C6.08887303 13.67270122 4.11060214 13.38882527 1 13 C-0.875 12 -0.875 12 -2 10 C-2.24131207 7.28121737 -2.1347929 4.7407889 -2 2 C-1.34 2 -0.68 2 0 2 C0 1.34 0 0.68 0 0 Z " fill="#D4D3D4" transform="translate(326,205)"/>
<path d="M0 0 C-2.52480693 2.52480693 -4.13823034 2.55738633 -7.625 3.125 C-8.62789062 3.29257813 -9.63078125 3.46015625 -10.6640625 3.6328125 C-11.43492187 3.75398437 -12.20578125 3.87515625 -13 4 C-12.88083814 9.51363085 -12.75653942 15.02711446 -12.62768555 20.54052734 C-12.58464097 22.41224095 -12.54294762 24.28398619 -12.50268555 26.15576172 C-12.4442362 28.8617502 -12.38076599 31.56758388 -12.31640625 34.2734375 C-12.29969376 35.09677582 -12.28298126 35.92011414 -12.26576233 36.7684021 C-12.13762207 41.90857006 -11.73550564 46.95220727 -11.10997009 52.05679321 C-11.07367996 52.69805145 -11.03738983 53.33930969 -11 54 C-12 55 -12 55 -14.50390625 55.09765625 C-15.51324219 55.08605469 -16.52257812 55.07445312 -17.5625 55.0625 C-18.57441406 55.05347656 -19.58632812 55.04445313 -20.62890625 55.03515625 C-21.80259766 55.01775391 -21.80259766 55.01775391 -23 55 C-23.66 53.68 -24.32 52.36 -25 51 C-24.01 51.66 -23.02 52.32 -22 53 C-19.72087062 53.45394552 -19.72087062 53.45394552 -17.3125 53.625 C-15.15625 53.8125 -15.15625 53.8125 -13 54 C-13.14002441 53.05165283 -13.28004883 52.10330566 -13.42431641 51.1262207 C-14.7706857 41.54082827 -15.37273119 32.10873788 -15.37060547 22.43139648 C-15.37508712 20.14301639 -15.41190429 17.85641428 -15.44921875 15.56835938 C-15.45507029 14.10156897 -15.45905078 12.63476961 -15.4609375 11.16796875 C-15.46915527 9.86110107 -15.47737305 8.5542334 -15.48583984 7.20776367 C-15 4 -15 4 -13.18994141 2.13012695 C-8.93136917 -0.06752421 -4.65522745 -1.86209098 0 0 Z " fill="#36559B" transform="translate(148,244)"/>
<path d="M0 0 C0.89203125 0.00902344 1.7840625 0.01804688 2.703125 0.02734375 C3.37859375 0.03894531 4.0540625 0.05054688 4.75 0.0625 C4.75 0.3925 4.75 0.7225 4.75 1.0625 C1.12 1.3925 -2.51 1.7225 -6.25 2.0625 C-5.59 3.3825 -4.93 4.7025 -4.25 6.0625 C-0.785 5.5675 -0.785 5.5675 2.75 5.0625 C2.42 6.3825 2.09 7.7025 1.75 9.0625 C1.00234375 9.02769531 0.2546875 8.99289063 -0.515625 8.95703125 C-1.50046875 8.92996094 -2.4853125 8.90289062 -3.5 8.875 C-4.47453125 8.84019531 -5.4490625 8.80539063 -6.453125 8.76953125 C-9.69849161 9.10947887 -10.97949286 9.74512459 -13.25 12.0625 C-14.37665378 15.38244815 -14.44683317 18.65592379 -14.56640625 22.140625 C-14.60830078 23.30078125 -14.65019531 24.4609375 -14.69335938 25.65625 C-14.75233398 27.46609375 -14.75233398 27.46609375 -14.8125 29.3125 C-14.85568359 30.53453125 -14.89886719 31.7565625 -14.94335938 33.015625 C-15.04937355 36.0311392 -15.15143936 39.04673448 -15.25 42.0625 C-15.58 42.0625 -15.91 42.0625 -16.25 42.0625 C-16.27902168 37.64584712 -16.29680608 33.22921877 -16.3125 28.8125 C-16.32087891 27.55824219 -16.32925781 26.30398437 -16.33789062 25.01171875 C-16.34111328 23.80644531 -16.34433594 22.60117188 -16.34765625 21.359375 C-16.35289307 20.24916992 -16.35812988 19.13896484 -16.36352539 17.99511719 C-16.26658493 15.49092621 -15.98230276 13.4443844 -15.25 11.0625 C-15.91 10.7325 -16.57 10.4025 -17.25 10.0625 C-16.59 10.0625 -15.93 10.0625 -15.25 10.0625 C-15.58 7.4225 -15.91 4.7825 -16.25 2.0625 C-18.56 2.0625 -20.87 2.0625 -23.25 2.0625 C-23.25 1.7325 -23.25 1.4025 -23.25 1.0625 C-21.97125 1.000625 -20.6925 0.93875 -19.375 0.875 C-18.29605469 0.82279297 -18.29605469 0.82279297 -17.1953125 0.76953125 C-16.55335938 0.86621094 -15.91140625 0.96289062 -15.25 1.0625 C-14.59 2.0525 -13.93 3.0425 -13.25 4.0625 C-12.38375 3.3509375 -12.38375 3.3509375 -11.5 2.625 C-7.77467265 0.03796712 -4.46245042 -0.05871645 0 0 Z " fill="#AAA9A8" transform="translate(434.25,225.9375)"/>
<path d="M0 0 C2.5 1.5625 2.5 1.5625 4 4 C3.75 7.75 3.75 7.75 3 11 C0.125 11.125 0.125 11.125 -3 11 C-3.66 10.34 -4.32 9.68 -5 9 C-7.32275177 8.59952556 -9.65739357 8.2602896 -12 8 C-12.33 8.66 -12.66 9.32 -13 10 C-12.63662961 3.58045641 -12.63662961 3.58045641 -9.875 1.0625 C-6.29541796 -0.26038902 -3.78909795 -0.48224883 0 0 Z " fill="#E1E0DE" transform="translate(312,226)"/>
<path d="M0 0 C0.33 1.32 0.66 2.64 1 4 C0.01 4.66 -0.98 5.32 -2 6 C-2 6.99 -2 7.98 -2 9 C0.97 9.495 0.97 9.495 4 10 C3.67 9.01 3.34 8.02 3 7 C3.969375 6.54625 4.93875 6.0925 5.9375 5.625 C9.07079582 4.34213779 9.07079582 4.34213779 10 2 C10.99 2.33 11.98 2.66 13 3 C12.67 3.99 12.34 4.98 12 6 C11.34 6 10.68 6 10 6 C10 6.66 10 7.32 10 8 C4.34593013 11.21449658 0.26155364 13.03659413 -6.3125 11.4375 C-8 10 -8 10 -8.9375 6.5625 C-9 3 -9 3 -7.9375 1.0625 C-5.23787512 -0.41793945 -3.02429981 -0.20161999 0 0 Z " fill="#F9F8F6" transform="translate(318,289)"/>
<path d="M0 0 C5.28 0 10.56 0 16 0 C16.495 18.315 16.495 18.315 17 37 C15 35 15 35 14.77294922 31.65185547 C14.77326625 30.22359367 14.78458639 28.79530788 14.8046875 27.3671875 C14.8075174 26.61535187 14.81034729 25.86351624 14.81326294 25.08889771 C14.82447126 22.68410422 14.84957648 20.27968119 14.875 17.875 C14.88502898 16.24609912 14.89415497 14.61719242 14.90234375 12.98828125 C14.92441265 8.99204444 14.95894649 4.99608506 15 1 C11.37 1.33 7.74 1.66 4 2 C4.99 2.33 5.98 2.66 7 3 C7 14.55 7 26.1 7 38 C6.67 38 6.34 38 6 38 C5.99589111 37.10692139 5.99178223 36.21384277 5.98754883 35.29370117 C5.96056643 31.97745641 5.91148823 28.66306719 5.84741211 25.34741211 C5.82422606 23.91295767 5.80983487 22.47833285 5.80444336 21.04370117 C5.79515651 18.97987644 5.75418592 16.91873292 5.70703125 14.85546875 C5.68346558 12.99378052 5.68346558 12.99378052 5.65942383 11.09448242 C5.44181396 10.07330322 5.2242041 9.05212402 5 8 C3.35932279 6.95790784 1.69326005 5.95427888 0 5 C0 3.35 0 1.7 0 0 Z " fill="#919090" transform="translate(345,227)"/>
<path d="M0 0 C0.66 0.66 1.32 1.32 2 2 C2.61875 1.649375 3.2375 1.29875 3.875 0.9375 C4.926875 0.4734375 4.926875 0.4734375 6 0 C8.52845528 1.26422764 8.76422764 2.52845528 10 5 C10.66 5.33 11.32 5.66 12 6 C11.67 7.32 11.34 8.64 11 10 C11.99 10.33 12.98 10.66 14 11 C14 14 14 14 12 18 C10.35 14.04 8.7 10.08 7 6 C4.53721199 8.46278801 4.00228745 10.70676982 3 14 C2.34 12.68 1.68 11.36 1 10 C0.01 10 -0.98 10 -2 10 C-2.66 11.32 -3.32 12.64 -4 14 C-4.33 13.34 -4.66 12.68 -5 12 C-4.26821134 9.92803369 -3.44100997 7.8891448 -2.5625 5.875 C-2.08941406 4.77929688 -1.61632812 3.68359375 -1.12890625 2.5546875 C-0.75636719 1.71164063 -0.38382813 0.86859375 0 0 Z " fill="#C6C4C3" transform="translate(233,219)"/>
<path d="M0 0 C8.24238588 14.82244184 4.31113176 36.4581536 -0.1015625 51.96484375 C-0.39804688 52.96644531 -0.69453125 53.96804688 -1 55 C-1.98351763 51.91092349 -1.96409099 49.98998163 -1.125 46.875 C1.8980573 34.29254528 2.07565394 20.95542406 -0.62109375 8.3203125 C-1.10309117 5.36869944 -0.77706039 2.87512343 0 0 Z " fill="#07266C" transform="translate(194,218)"/>
<path d="M0 0 C0.33 0 0.66 0 1 0 C1.02468857 4.5206665 1.04285449 9.0412939 1.05493164 13.56201172 C1.05996552 15.10043013 1.06679308 16.63884375 1.07543945 18.17724609 C1.08754639 20.38640526 1.09323769 22.59550126 1.09765625 24.8046875 C1.10281754 25.49432587 1.10797882 26.18396423 1.11329651 26.89450073 C1.11387171 31.77225659 1.11387171 31.77225659 0 34 C-0.23172827 36.54615009 -0.41894529 39.07396225 -0.5625 41.625 C-0.60568359 42.33140625 -0.64886719 43.0378125 -0.69335938 43.765625 C-0.79944751 45.51018537 -0.90022889 47.25506697 -1 49 C3.62 49 8.24 49 13 49 C13 49.66 13 50.32 13 51 C8.05 51 3.1 51 -2 51 C-2.25036853 33.87757454 -1.6625255 17.04530799 0 0 Z " fill="#15398D" transform="translate(136,186)"/>
<path d="M0 0 C0.33 0 0.66 0 1 0 C1 3.3 1 6.6 1 10 C2.37285156 9.98259766 2.37285156 9.98259766 3.7734375 9.96484375 C5.55621094 9.95130859 5.55621094 9.95130859 7.375 9.9375 C8.55835938 9.92589844 9.74171875 9.91429687 10.9609375 9.90234375 C14 10 14 10 16 11 C16 12.65 16 14.3 16 16 C15.15695313 16.20496094 14.31390625 16.40992188 13.4453125 16.62109375 C12.34960938 16.89050781 11.25390625 17.15992188 10.125 17.4375 C9.03445312 17.70433594 7.94390625 17.97117188 6.8203125 18.24609375 C4.07515279 18.8786478 4.07515279 18.8786478 2 20 C2.61277612 17.03824877 3.25372522 15.61941217 5 13 C3.68 13 2.36 13 1 13 C-0.32229189 10.35541621 -0.09677194 8.32238699 -0.0625 5.375 C-0.05347656 4.37210938 -0.04445312 3.36921875 -0.03515625 2.3359375 C-0.02355469 1.56507813 -0.01195312 0.79421875 0 0 Z " fill="#CAD7EE" transform="translate(133,227)"/>
<path d="M0 0 C1.32 0.33 2.64 0.66 4 1 C3.22095672 11.55808656 3.22095672 11.55808656 1 16 C0.67 15.01 0.34 14.02 0 13 C-0.598125 13.33 -1.19625 13.66 -1.8125 14 C-4 15 -4 15 -7 15 C-6.55123384 13.35153231 -6.09069512 11.70626545 -5.625 10.0625 C-5.36976563 9.14597656 -5.11453125 8.22945312 -4.8515625 7.28515625 C-4 5 -4 5 -2 4 C-0.86649466 1.98330173 -0.86649466 1.98330173 0 0 Z " fill="#D8D6D5" transform="translate(231,228)"/>
<path d="M0 0 C0.33 0 0.66 0 1 0 C1.07407906 4.23580253 1.12856696 8.47126341 1.16479492 12.70751953 C1.17989483 14.14899258 1.20037658 15.59041959 1.22631836 17.03173828 C1.2626513 19.10200343 1.27971329 21.17166207 1.29296875 23.2421875 C1.3086792 24.4885498 1.32438965 25.73491211 1.34057617 27.01904297 C1.22818604 28.00275879 1.1157959 28.98647461 1 30 C0.01 30.66 -0.98 31.32 -2 32 C-2.33 32.99 -2.66 33.98 -3 35 C-2.01 35 -1.02 35 0 35 C0 36.98 0 38.96 0 41 C-0.66 40.01 -1.32 39.02 -2 38 C-3.32 38.66 -4.64 39.32 -6 40 C-6 39.34 -6 38.68 -6 38 C-6.66 37.67 -7.32 37.34 -8 37 C-7.67 36.34 -7.34 35.68 -7 35 C-7.61488281 35.10699219 -8.22976563 35.21398437 -8.86328125 35.32421875 C-9.67152344 35.44410156 -10.47976563 35.56398438 -11.3125 35.6875 C-12.11300781 35.81511719 -12.91351563 35.94273437 -13.73828125 36.07421875 C-16 36 -16 36 -17.79296875 34.51953125 C-18.19128906 34.01808594 -18.58960938 33.51664062 -19 33 C-18.67 32.01 -18.34 31.02 -18 30 C-17.59523438 30.48339844 -17.19046875 30.96679688 -16.7734375 31.46484375 C-14.59860968 33.34745902 -13.47120835 33.48964484 -10.625 33.5625 C-9.87476563 33.60503906 -9.12453125 33.64757812 -8.3515625 33.69140625 C-5.48566682 32.84877579 -3.81679951 31.55831219 -2.00390625 29.1862793 C0.27593392 24.22130637 -0.21263907 18.48800143 -0.1875 13.125 C-0.16236328 11.86429688 -0.13722656 10.60359375 -0.11132812 9.3046875 C-0.05258047 6.20281113 -0.01620769 3.10234223 0 0 Z " fill="#989696" transform="translate(381,236)"/>
<path d="M0 0 C1.98 0 3.96 0 6 0 C6.66 12.87 7.32 25.74 8 39 C5 37 5 37 4.31640625 33.75 C3.75444959 27.51918231 3.89460521 21.24944117 3.9375 15 C3.94201172 13.74832031 3.94652344 12.49664062 3.95117188 11.20703125 C3.96288585 8.13797059 3.97928927 5.06901093 4 2 C2.68 1.67 1.36 1.34 0 1 C0 0.67 0 0.34 0 0 Z " fill="#204291" transform="translate(113,253)"/>
<path d="M0 0 C-2.45269554 3.67904331 -4.08290256 3.9079552 -8.125 5.15625 C-10.3579103 5.96146899 -10.3579103 5.96146899 -12 9 C-13.2065625 9.6496875 -13.2065625 9.6496875 -14.4375 10.3125 C-17.62653622 12.41259702 -18.53594871 14.53251011 -20 18 C-20.66 17.67 -21.32 17.34 -22 17 C-21.40572612 15.39214223 -20.79916412 13.78882291 -20.1875 12.1875 C-19.85105469 11.29417969 -19.51460938 10.40085937 -19.16796875 9.48046875 C-16.77638268 4.40134784 -13.61155125 3.21556137 -8.4375 1.25 C-7.28121094 0.80140625 -6.12492187 0.3528125 -4.93359375 -0.109375 C-2 -1 -2 -1 0 0 Z " fill="#1B4195" transform="translate(112,255)"/>
<path d="M0 0 C0.33 0 0.66 0 1 0 C1 7.92 1 15.84 1 24 C-10.66666667 29 -10.66666667 29 -17 29 C-16.27991594 24.39146203 -14.68704061 20.32762591 -13 16 C-12.22389502 18.99354776 -11.60855027 21.95724864 -11 25 C-5.555 24.01 -5.555 24.01 0 23 C0 15.41 0 7.82 0 0 Z " fill="#27468F" transform="translate(117,216)"/>
<path d="M0 0 C-0.350625 1.0725 -0.70125 2.145 -1.0625 3.25 C-1.98393386 6.93573542 -1.94754108 7.62932641 -1 11 C-0.93073032 13.75970408 -0.9058264 16.49196042 -0.9375 19.25 C-0.94201172 19.99507812 -0.94652344 20.74015625 -0.95117188 21.5078125 C-0.96290754 23.3385764 -0.9808415 25.16929873 -1 27 C-1.33 27 -1.66 27 -2 27 C-2.06058594 25.97519531 -2.12117188 24.95039063 -2.18359375 23.89453125 C-2.26805026 22.53384305 -2.35269567 21.17316657 -2.4375 19.8125 C-2.47681641 19.13896484 -2.51613281 18.46542969 -2.55664062 17.77148438 C-2.78927565 14.10300898 -3.17207011 10.58305794 -4 7 C-5.98 7 -7.96 7 -10 7 C-10 5.35 -10 3.7 -10 2 C-3.375 0 -3.375 0 0 0 Z " fill="#C1BFBF" transform="translate(328,227)"/>
<path d="M0 0 C5.70242272 0.5899058 10.80635445 1.40317723 16 4 C25.61205581 5.76014756 35.25727083 6.4814794 45 7 C45 7.33 45 7.66 45 8 C28.78951327 8.60349278 15.17181593 6.88329307 0 1 C0 0.67 0 0.34 0 0 Z " fill="#051F60" transform="translate(76,321)"/>
<path d="M0 0 C0 0.66 0 1.32 0 2 C-1.4609375 3.18359375 -1.4609375 3.18359375 -3.375 4.4375 C-6.08590869 6.21688245 -7.12796021 7.19194031 -9 10 C-9 10.99 -9 11.98 -9 13 C-10.32 13 -11.64 13 -13 13 C-15.00401011 13.30830925 -17.00511766 13.63729412 -19 14 C-18.34 13.01 -17.68 12.02 -17 11 C-16.34 11 -15.68 11 -15 11 C-15 10.34 -15 9.68 -15 9 C-13.2614204 7.57831868 -11.45776019 6.23550882 -9.625 4.9375 C-8.62726562 4.22464844 -7.62953125 3.51179687 -6.6015625 2.77734375 C-2.53626374 0 -2.53626374 0 0 0 Z " fill="#083692" transform="translate(71,168)"/>
<path d="M0 0 C0.33 0.99 0.66 1.98 1 3 C3.79172239 4.03316488 3.79172239 4.03316488 7.0625 4.6875 C8.71958984 5.06455078 8.71958984 5.06455078 10.41015625 5.44921875 C11.26480469 5.63097656 12.11945313 5.81273437 13 6 C10.94235079 12.45353615 8.57616518 18.7361263 6 25 C5.67 25 5.34 25 5 25 C5.39954742 21.60384689 5.77487148 18.55619987 7.0625 15.375 C8.09752133 12.75294596 8.15959779 10.79296141 8 8 C5.36 6.68 2.72 5.36 0 4 C0 2.68 0 1.36 0 0 Z " fill="#1D3C8C" transform="translate(64,258)"/>
<path d="M0 0 C2.97 0.495 2.97 0.495 6 1 C2.38748484 5.56048012 -0.98797445 9.01665146 -6 12 C-5.75 8.625 -5.75 8.625 -5 5 C-3 3.75 -3 3.75 -1 3 C-0.67 2.01 -0.34 1.02 0 0 Z " fill="#073496" transform="translate(171,298)"/>
<path d="M0 0 C0.7940625 -0.01417969 1.588125 -0.02835938 2.40625 -0.04296875 C4.5 0.1875 4.5 0.1875 6.5 2.1875 C5.84 2.1875 5.18 2.1875 4.5 2.1875 C4.17 3.1775 3.84 4.1675 3.5 5.1875 C0.86 5.5175 -1.78 5.8475 -4.5 6.1875 C-5.16 4.5375 -5.82 2.8875 -6.5 1.1875 C-4.14653604 0.01076802 -2.6193967 0.02126134 0 0 Z M1.5 5.1875 C1.5 8.1875 1.5 8.1875 1.5 8.1875 Z " fill="#FBFAF8" transform="translate(434.5,226.8125)"/>
<path d="M0 0 C2.31 0 4.62 0 7 0 C7.66 1.65 8.32 3.3 9 5 C9.66 4.67 10.32 4.34 11 4 C11 4.99 11 5.98 11 7 C13.64 7 16.28 7 19 7 C19.33 7.99 19.66 8.98 20 10 C22.01508358 10.73323796 22.01508358 10.73323796 24 11 C23.16855469 10.89300781 22.33710938 10.78601563 21.48046875 10.67578125 C19.85044922 10.49595703 19.85044922 10.49595703 18.1875 10.3125 C17.10855469 10.18488281 16.02960938 10.05726563 14.91796875 9.92578125 C11.98314944 9.70984708 11.98314944 9.70984708 10.11328125 11.48046875 C9.74589844 11.98191406 9.37851562 12.48335937 9 13 C9 12.01 9 11.02 9 10 C8.34 10 7.68 10 7 10 C6.34 7.36 5.68 4.72 5 2 C3.35 1.67 1.7 1.34 0 1 C0 0.67 0 0.34 0 0 Z " fill="#9B9998" transform="translate(289,227)"/>
<path d="M0 0 C0.33 0 0.66 0 1 0 C1.25 2.3125 1.25 2.3125 1 5 C-1 6.6875 -1 6.6875 -3 8 C-3 8.66 -3 9.32 -3 10 C-4.98 10 -6.96 10 -9 10 C-9.75 8.25 -9.75 8.25 -10 6 C-8.3125 3.6875 -8.3125 3.6875 -6 2 C-3.75 2.25 -3.75 2.25 -2 3 C-1.34 2.01 -0.68 1.02 0 0 Z " fill="#E1DEDD" transform="translate(325,289)"/>
<path d="M0 0 C0.99 0.33 1.98 0.66 3 1 C2.67 1.99 2.34 2.98 2 4 C1.34 4 0.68 4 0 4 C0 4.66 0 5.32 0 6 C-8.55842714 10.86570477 -8.55842714 10.86570477 -14 10 C-15.32 9.01 -16.64 8.02 -18 7 C-14.04 7.33 -10.08 7.66 -6 8 C-6.33 7.01 -6.66 6.02 -7 5 C-6.030625 4.54625 -5.06125 4.0925 -4.0625 3.625 C-0.92920418 2.34213779 -0.92920418 2.34213779 0 0 Z " fill="#A1A09F" transform="translate(328,291)"/>
<path d="M0 0 C-8.96422781 3.67792032 -17.15252108 6.95827339 -27 7 C-27 6.34 -27 5.68 -27 5 C-26.27554688 4.89042969 -25.55109375 4.78085937 -24.8046875 4.66796875 C-19.30130416 3.76541388 -14.9511416 2.64828504 -10 0 C-6.20262828 -0.91136921 -3.71761035 -1.05305701 0 0 Z " fill="#06226D" transform="translate(149,321)"/>
<path d="M0 0 C0.33 0 0.66 0 1 0 C2.73945331 10.79838837 2.73945331 10.79838837 0 15.25 C-3.62640457 17.36540267 -5.86550671 17.31203723 -10 17 C-10.66 17.33 -11.32 17.66 -12 18 C-14.3329866 18.04022391 -16.66706666 18.04320247 -19 18 C-18.67 17.34 -18.34 16.68 -18 16 C-16.39899638 15.76155265 -14.79601605 15.53252056 -13.1875 15.3515625 C-9.00879887 14.67998553 -5.02960362 13.26960114 -1 12 C-0.67 8.04 -0.34 4.08 0 0 Z " fill="#D0DCF1" transform="translate(118,228)"/>
<path d="M0 0 C0.66 0 1.32 0 2 0 C1.835 0.495 1.67 0.99 1.5 1.5 C0.58807341 6.05963297 0.51956112 10.55868337 2 15 C5.3 15.33 8.6 15.66 12 16 C12 16.66 12 17.32 12 18 C7.78473241 18.33722141 5.42210731 18.21887045 1.625 16.25 C-1 14 -1 14 -1.875 12.25 C-1.91625 11.5075 -1.9575 10.765 -2 10 C-2.03738281 9.35289062 -2.07476562 8.70578125 -2.11328125 8.0390625 C-2.18229144 6.02687058 -2.09730752 4.01102212 -2 2 C-1.34 1.34 -0.68 0.68 0 0 Z " fill="#0F3286" transform="translate(67,283)"/>
<path d="M0 0 C2.31 0.66 4.62 1.32 7 2 C7.33 3.98 7.66 5.96 8 8 C8.66 8 9.32 8 10 8 C10 9.65 10 11.3 10 13 C6.07523398 9.29950632 3.01551157 5.48018862 0 1 C0 0.67 0 0.34 0 0 Z " fill="#082C7B" transform="translate(40,290)"/>
<path d="M0 0 C0.64453125 1.765625 0.64453125 1.765625 1 4 C0.07421875 5.921875 0.07421875 5.921875 -1.3125 7.75 C-1.76238281 8.36359375 -2.21226563 8.9771875 -2.67578125 9.609375 C-3.11277344 10.06828125 -3.54976562 10.5271875 -4 11 C-4.66 11 -5.32 11 -6 11 C-6.28875 11.639375 -6.5775 12.27875 -6.875 12.9375 C-8 15 -8 15 -10 16 C-8.70931268 11.36711185 -6.9561156 8.30246056 -3.875 4.625 C-3.15054688 3.75101563 -2.42609375 2.87703125 -1.6796875 1.9765625 C-1.12539063 1.32429687 -0.57109375 0.67203125 0 0 Z " fill="#092C77" transform="translate(47,186)"/>
<path d="M0 0 C2.9719385 1.12451727 5.33440687 2.22293791 8 4 C8 4.66 8 5.32 8 6 C9.32 6 10.64 6 12 6 C12.33 7.32 12.66 8.64 13 10 C14.32 10.33 15.64 10.66 17 11 C17 11.66 17 12.32 17 13 C12.03231242 11.44759763 7.82132943 8.48945219 4 5 C4 4.34 4 3.68 4 3 C2.68 2.34 1.36 1.68 0 1 C0 0.67 0 0.34 0 0 Z " fill="#08276E" transform="translate(50,303)"/>
<path d="M0 0 C1.65 0 3.3 0 5 0 C5.33 1.65 5.66 3.3 6 5 C2.65060119 7.02558881 0.13037449 7.21738987 -3.75 7.125 C-4.73484375 7.10695313 -5.7196875 7.08890625 -6.734375 7.0703125 C-7.85585938 7.03550781 -7.85585938 7.03550781 -9 7 C-9 6.67 -9 6.34 -9 6 C-4.545 5.505 -4.545 5.505 0 5 C0 3.35 0 1.7 0 0 Z " fill="#D1D1CF" transform="translate(369,271)"/>
<path d="M0 0 C0.33 0 0.66 0 1 0 C0.63467598 7.42825511 -1.19121299 13.56028786 -5 20 C-5.99 20.66 -6.98 21.32 -8 22 C-6.42545856 17.15408121 -4.67580423 12.38980736 -2.875 7.625 C-2.45927734 6.52091797 -2.45927734 6.52091797 -2.03515625 5.39453125 C-1.35777777 3.59597461 -0.67902967 1.7979339 0 0 Z " fill="#D4DEF4" transform="translate(93,223)"/>
<path d="M0 0 C2 2 2 2 2.8359375 4.078125 C3.833655 6.21899471 3.833655 6.21899471 6.1640625 6.609375 C6.97617188 6.65578125 7.78828125 6.7021875 8.625 6.75 C9.85089844 6.83507812 9.85089844 6.83507812 11.1015625 6.921875 C11.72804687 6.94765625 12.35453125 6.9734375 13 7 C13 7.66 13 8.32 13 9 C11.14375 8.9690625 11.14375 8.9690625 9.25 8.9375 C6.3359175 8.93233319 3.79046673 9.06984442 1 10 C0.22157062 6.59437148 -0.09978121 3.49234244 0 0 Z " fill="#093A98" transform="translate(121,292)"/>
<path d="M0 0 C2 0 2 0 4.1875 1.75 C5.0846875 2.86375 5.0846875 2.86375 6 4 C5.75 6.25 5.75 6.25 5 8 C5.99 8.33 6.98 8.66 8 9 C8 12 8 12 6 16 C4.02 10.72 2.04 5.44 0 0 Z " fill="#B8B5B2" transform="translate(239,221)"/>
<path d="M0 0 C1.37830469 3.82862413 0.64545242 7.05556855 0 11 C-0.33218192 14.00259517 -0.33218192 14.00259517 1.5 15.6875 C2.2425 16.3371875 2.2425 16.3371875 3 17 C2.34 17.33 1.68 17.66 1 18 C-1 16.5 -1 16.5 -3 14 C-3.64366259 8.29898847 -3.00539066 5.00898443 0 0 Z " fill="#D6E1F5" transform="translate(70,281)"/>
<path d="M0 0 C3.86055058 2.81373462 6.30356165 5.56915631 8.8125 9.625 C9.41707031 10.58664063 10.02164063 11.54828125 10.64453125 12.5390625 C12 15 12 15 12 17 C11.34 17 10.68 17 10 17 C9.54625 16.030625 9.0925 15.06125 8.625 14.0625 C7.34213779 10.92920418 7.34213779 10.92920418 5 10 C4.375 7.4375 4.375 7.4375 4 5 C2.68 4.67 1.36 4.34 0 4 C0 2.68 0 1.36 0 0 Z " fill="#0C2C71" transform="translate(176,186)"/>
<path d="M0 0 C2.3431213 0.25561323 4.67843403 0.59270772 7 1 C8.25248502 3.50497004 8.11374406 5.20853274 8.09765625 8.0078125 C8.09443359 8.99394531 8.09121094 9.98007813 8.08789062 10.99609375 C8.07951172 12.02863281 8.07113281 13.06117188 8.0625 14.125 C8.05798828 15.16527344 8.05347656 16.20554688 8.04882812 17.27734375 C8.03701952 19.85161962 8.02055075 22.42578146 8 25 C7.67 25 7.34 25 7 25 C6.67 17.74 6.34 10.48 6 3 C4.02 2.34 2.04 1.68 0 1 C0 0.67 0 0.34 0 0 Z " fill="#5974B0" transform="translate(128,178)"/>
<path d="M0 0 C0.99 0.33 1.98 0.66 3 1 C2.67 2.32 2.34 3.64 2 5 C-5.26 5 -12.52 5 -20 5 C-19.67 3.68 -19.34 2.36 -19 1 C-19 1.99 -19 2.98 -19 4 C-12.73 3.67 -6.46 3.34 0 3 C0 2.01 0 1.02 0 0 Z " fill="#908F8E" transform="translate(301,272)"/>
<path d="M0 0 C0.33 0 0.66 0 1 0 C1.63019694 9.17286652 1.63019694 9.17286652 -1 12.625 C-1.66 13.07875 -2.32 13.5325 -3 14 C-3.99 13.67 -4.98 13.34 -6 13 C-5.38125 11.96875 -4.7625 10.9375 -4.125 9.875 C-2.29301955 6.68527517 -1.0364253 3.54111979 0 0 Z " fill="#204391" transform="translate(85,285)"/>
<path d="M0 0 C1.28630198 4.21055686 0.57582153 6.87284837 -1 11 C-3.125 12.9375 -3.125 12.9375 -5 14 C-4.46515599 8.65155992 -2.53309233 4.64203897 0 0 Z " fill="#09286E" transform="translate(36,202)"/>
<path d="M0 0 C1.32 0 2.64 0 4 0 C3.54917531 1.46067199 3.08906463 2.91848032 2.625 4.375 C2.36976563 5.18710937 2.11453125 5.99921875 1.8515625 6.8359375 C1 9 1 9 -1 11 C-1.0270043 9.54176788 -1.04639787 8.08339325 -1.0625 6.625 C-1.07410156 5.81289063 -1.08570313 5.00078125 -1.09765625 4.1640625 C-1 2 -1 2 0 0 Z " fill="#062F81" transform="translate(188,273)"/>
<path d="M0 0 C1.5 1.1875 1.5 1.1875 3 3 C3.1875 5.6875 3.1875 5.6875 3 8 C3.66 8 4.32 8 5 8 C5 10.64 5 13.28 5 16 C2.57395248 13.57395248 2.24156481 11.85807224 1.375 8.5625 C1.11460938 7.59441406 0.85421875 6.62632812 0.5859375 5.62890625 C0 3 0 3 0 0 Z " fill="#052867" transform="translate(28,260)"/>
<path d="M0 0 C1.85684088 3.21142152 2.41266805 5.9441131 2.75 9.625 C2.84796875 10.58664063 2.9459375 11.54828125 3.046875 12.5390625 C3 15 3 15 1 17 C-1.48063781 5.47835991 -1.48063781 5.47835991 0 0 Z " fill="#062E7B" transform="translate(194,218)"/>
<path d="M0 0 C-0.99 1.485 -0.99 1.485 -2 3 C-2.63292383 5.11280345 -2.63292383 5.11280345 -3 7 C-5.475 6.01 -5.475 6.01 -8 5 C-8 3.68 -8 2.36 -8 1 C-2.25 -1.125 -2.25 -1.125 0 0 Z " fill="#AAA7A8" transform="translate(288,229)"/>
<path d="M0 0 C0.66 0.66 1.32 1.32 2 2 C1.07767578 2.09087891 1.07767578 2.09087891 0.13671875 2.18359375 C-0.67152344 2.26738281 -1.47976562 2.35117188 -2.3125 2.4375 C-3.11300781 2.51871094 -3.91351563 2.59992188 -4.73828125 2.68359375 C-7.16087179 2.95265693 -7.16087179 2.95265693 -10 4 C-10.99 3.67 -11.98 3.34 -13 3 C-8.51982193 -0.36013356 -5.41184254 -0.44359365 0 0 Z " fill="#DDE9FA" transform="translate(126,177)"/>
<path d="M0 0 C2 3 2 3 1.75 4.9375 C0.20088075 9.19757794 -1.15650258 11.43766839 -5 14 C-3.45730076 9.27934033 -1.92205381 4.58335908 0 0 Z " fill="#ABAAAA" transform="translate(221,248)"/>
<path d="M0 0 C0.66 0.66 1.32 1.32 2 2 C1.24275352 3.98440482 0.46877038 5.96243005 -0.3125 7.9375 C-0.74175781 9.03964844 -1.17101562 10.14179688 -1.61328125 11.27734375 C-3 14 -3 14 -6 15 C-5.34 12.69 -4.68 10.38 -4 8 C-3.34 8 -2.68 8 -2 8 C-1.855625 7.236875 -1.71125 6.47375 -1.5625 5.6875 C-1 3 -1 3 0 0 Z " fill="#244490" transform="translate(86,237)"/>
<path d="M0 0 C2.31 0.66 4.62 1.32 7 2 C7 3.65 7 5.3 7 7 C6.401875 6.690625 5.80375 6.38125 5.1875 6.0625 C2.91043228 4.89790296 2.91043228 4.89790296 0 4 C0 2.68 0 1.36 0 0 Z " fill="#C5C4C4" transform="translate(345,228)"/>
<path d="M0 0 C0 0.66 0 1.32 0 2 C-1.94982535 3.40568804 -3.95950578 4.7295036 -6 6 C-6.9075 6.598125 -7.815 7.19625 -8.75 7.8125 C-9.4925 8.204375 -10.235 8.59625 -11 9 C-11.66 8.67 -12.32 8.34 -13 8 C-11.5433323 6.85204994 -10.08461063 5.70670581 -8.625 4.5625 C-7.40683594 3.60537109 -7.40683594 3.60537109 -6.1640625 2.62890625 C-2.67146283 0 -2.67146283 0 0 0 Z " fill="#0C2C6E" transform="translate(71,168)"/>
<path d="M0 0 C0.928125 0.20625 1.85625 0.4125 2.8125 0.625 C1.8225 2.11 1.8225 2.11 0.8125 3.625 C-2.8125 3.8125 -2.8125 3.8125 -6.1875 3.625 C-6.1875 2.965 -6.1875 2.305 -6.1875 1.625 C-3.1875 -0.375 -3.1875 -0.375 0 0 Z " fill="#FAF9F7" transform="translate(393.1875,272.375)"/>
<path d="M0 0 C0.66 0.33 1.32 0.66 2 1 C-2.625 4 -2.625 4 -6 4 C-5.73323796 5.98491642 -5.73323796 5.98491642 -5 8 C-4.01 8.33 -3.02 8.66 -2 9 C-3.65 8.67 -5.3 8.34 -7 8 C-7.33 6.68 -7.66 5.36 -8 4 C-6.71349294 3.30289269 -5.42059335 2.61757124 -4.125 1.9375 C-3.40570313 1.55464844 -2.68640625 1.17179688 -1.9453125 0.77734375 C-1.30335937 0.52082031 -0.66140625 0.26429688 0 0 Z " fill="#D8E4F9" transform="translate(74,254)"/>
<path d="M0 0 C0.33 0.66 0.66 1.32 1 2 C-2.13349732 3.04449911 -2.98968256 2.93423645 -6 2 C-6 2.66 -6 3.32 -6 4 C-6.66 4 -7.32 4 -8 4 C-8.33 5.32 -8.66 6.64 -9 8 C-9.22223194 5.25913944 -9.34781139 3.56036279 -7.875 1.1875 C-5.22464043 -0.49106106 -3.06753576 -0.20450238 0 0 Z " fill="#8F8E8D" transform="translate(318,289)"/>
<path d="M0 0 C-2.74093665 1.8272911 -5.13825324 2.93698178 -8.1875 4.125 C-9.08855469 4.47820312 -9.98960938 4.83140625 -10.91796875 5.1953125 C-11.94857422 5.59363281 -11.94857422 5.59363281 -13 6 C-13 4 -13 4 -11.8125 2.4375 C-8.32691548 -0.3269291 -4.29227585 -0.12263645 0 0 Z " fill="#284792" transform="translate(79,252)"/>
<path d="M0 0 C0 0.66 0 1.32 0 2 C0.66 2.33 1.32 2.66 2 3 C-0.70879335 4.35439668 -3.00933268 4.06501451 -6 4 C-6 3.01 -6 2.02 -6 1 C-4 0 -4 0 0 0 Z " fill="#F9FAF5" transform="translate(146,239)"/>
<path d="M0 0 C4.43090471 1.20842856 6.98112756 2.51668565 10 6 C9.01 6.33 8.02 6.66 7 7 C7 6.34 7 5.68 7 5 C5.68 5 4.36 5 3 5 C1.25 3.625 1.25 3.625 0 2 C0 1.34 0 0.68 0 0 Z " fill="#0B3077" transform="translate(153,168)"/>
<path d="M0 0 C-4.62197306 2.21854707 -7.76824163 3.38281159 -13 3 C-11.13268754 0.61398964 -10.05536515 0.01413578 -7.0625 -0.75 C-4.31738172 -0.97409129 -2.56926391 -0.88936059 0 0 Z " fill="#0B2979" transform="translate(149,321)"/>
<path d="M0 0 C2.64 0 5.28 0 8 0 C7.01 1.485 7.01 1.485 6 3 C2.875 3.1875 2.875 3.1875 0 3 C0 2.01 0 1.02 0 0 Z " fill="#FBF8F5" transform="translate(250,273)"/>
<path d="M0 0 C0.66 0.99 1.32 1.98 2 3 C1.525625 3.7425 1.05125 4.485 0.5625 5.25 C-0.77869327 7.61050015 -1.512312 9.36648477 -2 12 C-2.66 12 -3.32 12 -4 12 C-3.33501617 7.61110675 -1.81242323 4.0188515 0 0 Z " fill="#193588" transform="translate(109,222)"/>
<path d="M0 0 C0.99 0.33 1.98 0.66 3 1 C3 1.66 3 2.32 3 3 C6.3 3.33 9.6 3.66 13 4 C13 4.66 13 5.32 13 6 C7.32822615 6.45374191 4.4024732 5.65083143 0 2 C0 1.34 0 0.68 0 0 Z " fill="#21408C" transform="translate(66,295)"/>
<path d="M0 0 C1.65 0.33 3.3 0.66 5 1 C3.68 2.32 2.36 3.64 1 5 C-0.32 4.34 -1.64 3.68 -3 3 C-2.34 3 -1.68 3 -1 3 C-0.67 2.01 -0.34 1.02 0 0 Z " fill="#CDCBCA" transform="translate(420,233)"/>
<path d="M0 0 C2.64 0.33 5.28 0.66 8 1 C8.33 2.32 8.66 3.64 9 5 C5.22454612 3.90931332 2.52956528 3.0916909 0 0 Z " fill="#07276B" transform="translate(67,316)"/>
<path d="M0 0 C1.2065625 0.0309375 1.2065625 0.0309375 2.4375 0.0625 C0.79580472 2.08304804 -0.87161778 4.08293058 -2.5625 6.0625 C-2.8925 6.0625 -3.2225 6.0625 -3.5625 6.0625 C-3.605221 4.39638095 -3.60313832 2.72867115 -3.5625 1.0625 C-2.5625 0.0625 -2.5625 0.0625 0 0 Z " fill="#0A2D76" transform="translate(174.5625,298.9375)"/>
<path d="M0 0 C1.98 0 3.96 0 6 0 C6 0.99 6 1.98 6 3 C3.36 3 0.72 3 -2 3 C-1.34 2.67 -0.68 2.34 0 2 C0 1.34 0 0.68 0 0 Z " fill="#FAF9F9" transform="translate(223,273)"/>
<path d="M0 0 C-1.7015625 0.4021875 -1.7015625 0.4021875 -3.4375 0.8125 C-4.613125 1.204375 -5.78875 1.59625 -7 2 C-7.33 2.99 -7.66 3.98 -8 5 C-8.66 4.67 -9.32 4.34 -10 4 C-10 3.34 -10 2.68 -10 2 C-9.34 2 -8.68 2 -8 2 C-8 1.34 -8 0.68 -8 0 C-4.71303767 -0.79953138 -3.28976808 -1.09658936 0 0 Z " fill="#E3EDF9" transform="translate(102,258)"/>
<path d="M0 0 C2.31 0 4.62 0 7 0 C9 5.75 9 5.75 9 8 C8.34 8 7.68 8 7 8 C6.34 6.02 5.68 4.04 5 2 C3.35 1.67 1.7 1.34 0 1 C0 0.67 0 0.34 0 0 Z " fill="#848381" transform="translate(289,227)"/>
<path d="M0 0 C2.33944736 0.28730055 4.6739143 0.61936779 7 1 C4.3144406 3.6855594 1.62378672 4.06049974 -2 5 C-1.125 1.125 -1.125 1.125 0 0 Z " fill="#E4EBFB" transform="translate(137,242)"/>
<path d="M0 0 C2.15377564 2.62198774 3.40072174 4.64404172 4 8 C2.68 7.67 1.36 7.34 0 7 C0 4.69 0 2.38 0 0 Z " fill="#082C78" transform="translate(188,203)"/>
<path d="M0 0 C1.98 0.66 3.96 1.32 6 2 C6 3.32 6 4.64 6 6 C4.68 5.67 3.36 5.34 2 5 C2 4.34 2 3.68 2 3 C1.34 2.67 0.68 2.34 0 2 C0 1.34 0 0.68 0 0 Z " fill="#ABAAA9" transform="translate(392,270)"/>
<path d="M0 0 C0.33 0 0.66 0 1 0 C1.25 6.625 1.25 6.625 -1 10 C-1.66 9.67 -2.32 9.34 -3 9 C-2.01 6.03 -1.02 3.06 0 0 Z " fill="#2B4892" transform="translate(93,263)"/>
<path d="M0 0 C-2 2 -2 2 -4.1640625 2.1953125 C-5.38222656 2.16050781 -5.38222656 2.16050781 -6.625 2.125 C-7.44226563 2.10695312 -8.25953125 2.08890625 -9.1015625 2.0703125 C-9.72804687 2.04710937 -10.35453125 2.02390625 -11 2 C-11 1.67 -11 1.34 -11 1 C-3.57142857 -1.42857143 -3.57142857 -1.42857143 0 0 Z " fill="#345196" transform="translate(148,244)"/>
<path d="M0 0 C0.99 0 1.98 0 3 0 C2.67 1.98 2.34 3.96 2 6 C1.01 5.34 0.02 4.68 -1 4 C-0.67 2.68 -0.34 1.36 0 0 Z " fill="#EBF3F4" transform="translate(123,290)"/>
<path d="M0 0 C0.33 0 0.66 0 1 0 C1.36923077 6.52307692 1.36923077 6.52307692 -0.5 8.9375 C-0.995 9.288125 -1.49 9.63875 -2 10 C-1.54177532 6.53058454 -1.10868317 3.32604951 0 0 Z " fill="#27478E" transform="translate(89,274)"/>
<path d="M0 0 C1.98 0 3.96 0 6 0 C6 0.66 6 1.32 6 2 C3.36 2.66 0.72 3.32 -2 4 C-1.34 2.68 -0.68 1.36 0 0 Z " fill="#949494" transform="translate(240,205)"/>
</svg>
